<mxfile host="app.diagrams.net" modified="2023-12-08T08:04:55.635Z" agent="Mozilla/5.0 (Windows NT 10.0; Win64; x64) AppleWebKit/537.36 (KHTML, like Gecko) Chrome/119.0.0.0 Safari/537.36 Edg/119.0.0.0" etag="ScStRrzOSIZlpTdvuStA" version="22.1.7" type="github">
  <diagram name="第 1 页" id="eVJsNLCNCUM8TFV9pEN_">
    <mxGraphModel dx="1048" dy="591" grid="1" gridSize="10" guides="1" tooltips="1" connect="1" arrows="1" fold="1" page="1" pageScale="1" pageWidth="827" pageHeight="1169" math="0" shadow="0">
      <root>
        <mxCell id="0" />
        <mxCell id="1" parent="0" />
        <mxCell id="uJTnzZAIRmg2BBLwjQIl-10" style="edgeStyle=orthogonalEdgeStyle;rounded=0;orthogonalLoop=1;jettySize=auto;html=1;exitX=1;exitY=0.5;exitDx=0;exitDy=0;entryX=0;entryY=0.5;entryDx=0;entryDy=0;" parent="1" source="uJTnzZAIRmg2BBLwjQIl-1" target="uJTnzZAIRmg2BBLwjQIl-2" edge="1">
          <mxGeometry relative="1" as="geometry" />
        </mxCell>
        <mxCell id="y-pHavdXfrGVGDhUzRtg-1" style="edgeStyle=orthogonalEdgeStyle;rounded=0;orthogonalLoop=1;jettySize=auto;html=1;exitX=1;exitY=0.5;exitDx=0;exitDy=0;entryX=0;entryY=0.5;entryDx=0;entryDy=0;" parent="1" source="uJTnzZAIRmg2BBLwjQIl-1" target="uJTnzZAIRmg2BBLwjQIl-3" edge="1">
          <mxGeometry relative="1" as="geometry" />
        </mxCell>
        <mxCell id="uJTnzZAIRmg2BBLwjQIl-1" value="潜艇手续" style="rounded=1;whiteSpace=wrap;html=1;" parent="1" vertex="1">
          <mxGeometry x="110" y="130" width="120" height="60" as="geometry" />
        </mxCell>
        <mxCell id="uJTnzZAIRmg2BBLwjQIl-6" style="edgeStyle=orthogonalEdgeStyle;rounded=0;orthogonalLoop=1;jettySize=auto;html=1;exitX=1;exitY=0.5;exitDx=0;exitDy=0;entryX=0;entryY=0.5;entryDx=0;entryDy=0;" parent="1" source="uJTnzZAIRmg2BBLwjQIl-2" target="uJTnzZAIRmg2BBLwjQIl-4" edge="1">
          <mxGeometry relative="1" as="geometry" />
        </mxCell>
        <mxCell id="y-pHavdXfrGVGDhUzRtg-3" style="edgeStyle=orthogonalEdgeStyle;rounded=0;orthogonalLoop=1;jettySize=auto;html=1;exitX=1;exitY=0.5;exitDx=0;exitDy=0;entryX=0;entryY=0.5;entryDx=0;entryDy=0;" parent="1" source="uJTnzZAIRmg2BBLwjQIl-2" target="y-pHavdXfrGVGDhUzRtg-2" edge="1">
          <mxGeometry relative="1" as="geometry" />
        </mxCell>
        <mxCell id="uJTnzZAIRmg2BBLwjQIl-2" value="潜艇牌照" style="rounded=1;whiteSpace=wrap;html=1;" parent="1" vertex="1">
          <mxGeometry x="320" y="60" width="120" height="60" as="geometry" />
        </mxCell>
        <mxCell id="uJTnzZAIRmg2BBLwjQIl-12" style="edgeStyle=orthogonalEdgeStyle;rounded=0;orthogonalLoop=1;jettySize=auto;html=1;exitX=1;exitY=0.5;exitDx=0;exitDy=0;entryX=0;entryY=0.5;entryDx=0;entryDy=0;" parent="1" source="uJTnzZAIRmg2BBLwjQIl-3" target="uJTnzZAIRmg2BBLwjQIl-8" edge="1">
          <mxGeometry relative="1" as="geometry" />
        </mxCell>
        <mxCell id="uJTnzZAIRmg2BBLwjQIl-13" style="edgeStyle=orthogonalEdgeStyle;rounded=0;orthogonalLoop=1;jettySize=auto;html=1;exitX=1;exitY=0.5;exitDx=0;exitDy=0;entryX=0;entryY=0.5;entryDx=0;entryDy=0;" parent="1" source="uJTnzZAIRmg2BBLwjQIl-3" target="uJTnzZAIRmg2BBLwjQIl-9" edge="1">
          <mxGeometry relative="1" as="geometry" />
        </mxCell>
        <mxCell id="Xnv4SM8pmu6KSxDaKhVw-2" style="edgeStyle=orthogonalEdgeStyle;rounded=0;orthogonalLoop=1;jettySize=auto;html=1;exitX=1;exitY=0.5;exitDx=0;exitDy=0;entryX=0;entryY=0.5;entryDx=0;entryDy=0;" edge="1" parent="1" source="uJTnzZAIRmg2BBLwjQIl-3" target="Xnv4SM8pmu6KSxDaKhVw-1">
          <mxGeometry relative="1" as="geometry" />
        </mxCell>
        <mxCell id="Xnv4SM8pmu6KSxDaKhVw-42" style="edgeStyle=orthogonalEdgeStyle;rounded=0;orthogonalLoop=1;jettySize=auto;html=1;exitX=0.5;exitY=1;exitDx=0;exitDy=0;entryX=0.5;entryY=0;entryDx=0;entryDy=0;" edge="1" parent="1" source="uJTnzZAIRmg2BBLwjQIl-3" target="uJTnzZAIRmg2BBLwjQIl-18">
          <mxGeometry relative="1" as="geometry" />
        </mxCell>
        <mxCell id="uJTnzZAIRmg2BBLwjQIl-3" value="下潜许可" style="rounded=1;whiteSpace=wrap;html=1;" parent="1" vertex="1">
          <mxGeometry x="320" y="240" width="120" height="60" as="geometry" />
        </mxCell>
        <mxCell id="uJTnzZAIRmg2BBLwjQIl-28" style="edgeStyle=orthogonalEdgeStyle;rounded=0;orthogonalLoop=1;jettySize=auto;html=1;exitX=1;exitY=0.5;exitDx=0;exitDy=0;entryX=0;entryY=0.5;entryDx=0;entryDy=0;" parent="1" source="uJTnzZAIRmg2BBLwjQIl-4" target="uJTnzZAIRmg2BBLwjQIl-17" edge="1">
          <mxGeometry relative="1" as="geometry" />
        </mxCell>
        <mxCell id="uJTnzZAIRmg2BBLwjQIl-4" value="潜艇作为创新建造的游艇(IV类船舶)" style="rounded=1;whiteSpace=wrap;html=1;" parent="1" vertex="1">
          <mxGeometry x="525" y="10" width="120" height="60" as="geometry" />
        </mxCell>
        <mxCell id="y-pHavdXfrGVGDhUzRtg-6" style="edgeStyle=orthogonalEdgeStyle;rounded=0;orthogonalLoop=1;jettySize=auto;html=1;exitX=1;exitY=0.5;exitDx=0;exitDy=0;" parent="1" edge="1">
          <mxGeometry relative="1" as="geometry">
            <mxPoint x="870" y="110" as="targetPoint" />
            <mxPoint x="645" y="110" as="sourcePoint" />
          </mxGeometry>
        </mxCell>
        <mxCell id="uJTnzZAIRmg2BBLwjQIl-8" value="公司申请科研" style="rounded=1;whiteSpace=wrap;html=1;" parent="1" vertex="1">
          <mxGeometry x="525" y="240" width="120" height="60" as="geometry" />
        </mxCell>
        <mxCell id="uJTnzZAIRmg2BBLwjQIl-9" value="“老杨”、海洋大学、南海研究所" style="rounded=1;whiteSpace=wrap;html=1;" parent="1" vertex="1">
          <mxGeometry x="525" y="310" width="120" height="60" as="geometry" />
        </mxCell>
        <mxCell id="uJTnzZAIRmg2BBLwjQIl-19" style="edgeStyle=orthogonalEdgeStyle;rounded=0;orthogonalLoop=1;jettySize=auto;html=1;exitX=1;exitY=0.5;exitDx=0;exitDy=0;entryX=0;entryY=0.5;entryDx=0;entryDy=0;" parent="1" source="uJTnzZAIRmg2BBLwjQIl-14" target="uJTnzZAIRmg2BBLwjQIl-18" edge="1">
          <mxGeometry relative="1" as="geometry" />
        </mxCell>
        <mxCell id="Xnv4SM8pmu6KSxDaKhVw-4" style="edgeStyle=orthogonalEdgeStyle;rounded=0;orthogonalLoop=1;jettySize=auto;html=1;exitX=1;exitY=0.5;exitDx=0;exitDy=0;entryX=0;entryY=0.5;entryDx=0;entryDy=0;" edge="1" parent="1" source="uJTnzZAIRmg2BBLwjQIl-14" target="uJTnzZAIRmg2BBLwjQIl-21">
          <mxGeometry relative="1" as="geometry" />
        </mxCell>
        <mxCell id="Xnv4SM8pmu6KSxDaKhVw-5" style="edgeStyle=orthogonalEdgeStyle;rounded=0;orthogonalLoop=1;jettySize=auto;html=1;exitX=1;exitY=0.5;exitDx=0;exitDy=0;entryX=0;entryY=0.5;entryDx=0;entryDy=0;" edge="1" parent="1" source="uJTnzZAIRmg2BBLwjQIl-14" target="uJTnzZAIRmg2BBLwjQIl-24">
          <mxGeometry relative="1" as="geometry" />
        </mxCell>
        <mxCell id="uJTnzZAIRmg2BBLwjQIl-14" value="支持船" style="rounded=1;whiteSpace=wrap;html=1;" parent="1" vertex="1">
          <mxGeometry x="100" y="500" width="120" height="60" as="geometry" />
        </mxCell>
        <mxCell id="Xnv4SM8pmu6KSxDaKhVw-41" style="edgeStyle=orthogonalEdgeStyle;rounded=0;orthogonalLoop=1;jettySize=auto;html=1;exitX=1;exitY=0.5;exitDx=0;exitDy=0;entryX=0;entryY=0.5;entryDx=0;entryDy=0;" edge="1" parent="1" source="uJTnzZAIRmg2BBLwjQIl-17" target="Xnv4SM8pmu6KSxDaKhVw-40">
          <mxGeometry relative="1" as="geometry" />
        </mxCell>
        <mxCell id="uJTnzZAIRmg2BBLwjQIl-17" value="NextWave正与海事处沟通Triton要求的保密协议" style="rounded=0;whiteSpace=wrap;html=1;" parent="1" vertex="1">
          <mxGeometry x="700" y="10" width="120" height="60" as="geometry" />
        </mxCell>
        <mxCell id="uJTnzZAIRmg2BBLwjQIl-23" style="edgeStyle=orthogonalEdgeStyle;rounded=0;orthogonalLoop=1;jettySize=auto;html=1;exitX=1;exitY=0.5;exitDx=0;exitDy=0;entryX=0;entryY=0.5;entryDx=0;entryDy=0;" parent="1" source="uJTnzZAIRmg2BBLwjQIl-18" target="uJTnzZAIRmg2BBLwjQIl-20" edge="1">
          <mxGeometry relative="1" as="geometry" />
        </mxCell>
        <mxCell id="uJTnzZAIRmg2BBLwjQIl-18" value="确定牌照种类&lt;br&gt;(香港游艇-可转海南)&lt;br&gt;设计图定稿" style="rounded=1;whiteSpace=wrap;html=1;" parent="1" vertex="1">
          <mxGeometry x="300" y="400" width="120" height="60" as="geometry" />
        </mxCell>
        <mxCell id="uJTnzZAIRmg2BBLwjQIl-20" value="合同&lt;br&gt;CCS审图&lt;br&gt;海事处审图" style="rounded=1;whiteSpace=wrap;html=1;" parent="1" vertex="1">
          <mxGeometry x="470" y="400" width="120" height="60" as="geometry" />
        </mxCell>
        <mxCell id="Xnv4SM8pmu6KSxDaKhVw-15" style="edgeStyle=orthogonalEdgeStyle;rounded=0;orthogonalLoop=1;jettySize=auto;html=1;exitX=1;exitY=0.5;exitDx=0;exitDy=0;entryX=0;entryY=0.5;entryDx=0;entryDy=0;" edge="1" parent="1" source="uJTnzZAIRmg2BBLwjQIl-21" target="Xnv4SM8pmu6KSxDaKhVw-6">
          <mxGeometry relative="1" as="geometry" />
        </mxCell>
        <mxCell id="Xnv4SM8pmu6KSxDaKhVw-16" style="edgeStyle=orthogonalEdgeStyle;rounded=0;orthogonalLoop=1;jettySize=auto;html=1;exitX=1;exitY=0.5;exitDx=0;exitDy=0;entryX=0;entryY=0.5;entryDx=0;entryDy=0;" edge="1" parent="1" source="uJTnzZAIRmg2BBLwjQIl-21" target="Xnv4SM8pmu6KSxDaKhVw-7">
          <mxGeometry relative="1" as="geometry" />
        </mxCell>
        <mxCell id="uJTnzZAIRmg2BBLwjQIl-21" value="安全性" style="rounded=1;whiteSpace=wrap;html=1;" parent="1" vertex="1">
          <mxGeometry x="300" y="500" width="120" height="60" as="geometry" />
        </mxCell>
        <mxCell id="Xnv4SM8pmu6KSxDaKhVw-12" style="edgeStyle=orthogonalEdgeStyle;rounded=0;orthogonalLoop=1;jettySize=auto;html=1;exitX=1;exitY=0.5;exitDx=0;exitDy=0;entryX=0;entryY=0.5;entryDx=0;entryDy=0;" edge="1" parent="1" source="uJTnzZAIRmg2BBLwjQIl-24" target="Xnv4SM8pmu6KSxDaKhVw-8">
          <mxGeometry relative="1" as="geometry" />
        </mxCell>
        <mxCell id="Xnv4SM8pmu6KSxDaKhVw-13" style="edgeStyle=orthogonalEdgeStyle;rounded=0;orthogonalLoop=1;jettySize=auto;html=1;exitX=1;exitY=0.5;exitDx=0;exitDy=0;entryX=0;entryY=0.5;entryDx=0;entryDy=0;" edge="1" parent="1" source="uJTnzZAIRmg2BBLwjQIl-24" target="Xnv4SM8pmu6KSxDaKhVw-10">
          <mxGeometry relative="1" as="geometry" />
        </mxCell>
        <mxCell id="Xnv4SM8pmu6KSxDaKhVw-24" style="edgeStyle=orthogonalEdgeStyle;rounded=0;orthogonalLoop=1;jettySize=auto;html=1;exitX=1;exitY=0.5;exitDx=0;exitDy=0;entryX=0;entryY=0.5;entryDx=0;entryDy=0;" edge="1" parent="1" source="uJTnzZAIRmg2BBLwjQIl-24" target="Xnv4SM8pmu6KSxDaKhVw-23">
          <mxGeometry relative="1" as="geometry" />
        </mxCell>
        <mxCell id="Xnv4SM8pmu6KSxDaKhVw-29" style="edgeStyle=orthogonalEdgeStyle;rounded=0;orthogonalLoop=1;jettySize=auto;html=1;exitX=1;exitY=0.5;exitDx=0;exitDy=0;entryX=0;entryY=0.5;entryDx=0;entryDy=0;" edge="1" parent="1" source="uJTnzZAIRmg2BBLwjQIl-24" target="Xnv4SM8pmu6KSxDaKhVw-17">
          <mxGeometry relative="1" as="geometry" />
        </mxCell>
        <mxCell id="uJTnzZAIRmg2BBLwjQIl-24" value="性价比&lt;br&gt;（从高价到低价在学习）" style="rounded=1;whiteSpace=wrap;html=1;" parent="1" vertex="1">
          <mxGeometry x="300" y="615" width="120" height="60" as="geometry" />
        </mxCell>
        <mxCell id="uJTnzZAIRmg2BBLwjQIl-31" style="edgeStyle=orthogonalEdgeStyle;rounded=0;orthogonalLoop=1;jettySize=auto;html=1;exitX=1;exitY=0.5;exitDx=0;exitDy=0;entryX=0;entryY=0.5;entryDx=0;entryDy=0;" parent="1" source="uJTnzZAIRmg2BBLwjQIl-26" target="uJTnzZAIRmg2BBLwjQIl-27" edge="1">
          <mxGeometry relative="1" as="geometry" />
        </mxCell>
        <mxCell id="uJTnzZAIRmg2BBLwjQIl-32" style="edgeStyle=orthogonalEdgeStyle;rounded=0;orthogonalLoop=1;jettySize=auto;html=1;exitX=0.5;exitY=0;exitDx=0;exitDy=0;entryX=0.5;entryY=1;entryDx=0;entryDy=0;" parent="1" source="uJTnzZAIRmg2BBLwjQIl-26" target="uJTnzZAIRmg2BBLwjQIl-14" edge="1">
          <mxGeometry relative="1" as="geometry" />
        </mxCell>
        <mxCell id="uJTnzZAIRmg2BBLwjQIl-26" value="下潜地点" style="rounded=1;whiteSpace=wrap;html=1;" parent="1" vertex="1">
          <mxGeometry x="100" y="810" width="120" height="60" as="geometry" />
        </mxCell>
        <mxCell id="Xnv4SM8pmu6KSxDaKhVw-38" style="edgeStyle=orthogonalEdgeStyle;rounded=0;orthogonalLoop=1;jettySize=auto;html=1;exitX=1;exitY=0.5;exitDx=0;exitDy=0;" edge="1" parent="1" source="uJTnzZAIRmg2BBLwjQIl-27" target="Xnv4SM8pmu6KSxDaKhVw-35">
          <mxGeometry relative="1" as="geometry" />
        </mxCell>
        <mxCell id="uJTnzZAIRmg2BBLwjQIl-27" value="1、目的地生物或遗迹&lt;br&gt;2、水文环境(视野清晰、洋流、浪高)&lt;br&gt;3、安全(远离航道、渔场、军事区、油气)" style="rounded=1;whiteSpace=wrap;html=1;" parent="1" vertex="1">
          <mxGeometry x="300" y="800" width="120" height="80" as="geometry" />
        </mxCell>
        <mxCell id="y-pHavdXfrGVGDhUzRtg-2" value="说明螺旋桨不是推进器，登记成4米以下，7.5KW以下附属船只" style="rounded=1;whiteSpace=wrap;html=1;" parent="1" vertex="1">
          <mxGeometry x="525" y="90" width="120" height="60" as="geometry" />
        </mxCell>
        <mxCell id="y-pHavdXfrGVGDhUzRtg-10" style="edgeStyle=orthogonalEdgeStyle;rounded=0;orthogonalLoop=1;jettySize=auto;html=1;exitX=1;exitY=0.5;exitDx=0;exitDy=0;" parent="1" source="y-pHavdXfrGVGDhUzRtg-7" edge="1">
          <mxGeometry relative="1" as="geometry">
            <mxPoint x="300" y="1000" as="targetPoint" />
          </mxGeometry>
        </mxCell>
        <mxCell id="y-pHavdXfrGVGDhUzRtg-7" value="香港法规" style="rounded=1;whiteSpace=wrap;html=1;" parent="1" vertex="1">
          <mxGeometry x="100" y="970" width="120" height="60" as="geometry" />
        </mxCell>
        <mxCell id="RBoVIYKwUGzxHA82L_Fq-1" value="" style="rounded=1;whiteSpace=wrap;html=1;" parent="1" vertex="1">
          <mxGeometry x="300" y="970" width="120" height="60" as="geometry" />
        </mxCell>
        <mxCell id="Xnv4SM8pmu6KSxDaKhVw-1" value="无视&lt;br&gt;" style="rounded=1;whiteSpace=wrap;html=1;" vertex="1" parent="1">
          <mxGeometry x="525" y="170" width="120" height="60" as="geometry" />
        </mxCell>
        <mxCell id="Xnv4SM8pmu6KSxDaKhVw-3" value="待前一种不行再尝试此种，Triton不同意虚标小推进器。" style="rounded=0;whiteSpace=wrap;html=1;" vertex="1" parent="1">
          <mxGeometry x="870" y="80" width="120" height="60" as="geometry" />
        </mxCell>
        <mxCell id="Xnv4SM8pmu6KSxDaKhVw-6" value="CCS、船厂、监理" style="rounded=1;whiteSpace=wrap;html=1;" vertex="1" parent="1">
          <mxGeometry x="470" y="480" width="120" height="40" as="geometry" />
        </mxCell>
        <mxCell id="Xnv4SM8pmu6KSxDaKhVw-34" style="edgeStyle=orthogonalEdgeStyle;rounded=0;orthogonalLoop=1;jettySize=auto;html=1;exitX=1;exitY=0.5;exitDx=0;exitDy=0;entryX=0;entryY=0.5;entryDx=0;entryDy=0;" edge="1" parent="1" source="Xnv4SM8pmu6KSxDaKhVw-7" target="Xnv4SM8pmu6KSxDaKhVw-20">
          <mxGeometry relative="1" as="geometry" />
        </mxCell>
        <mxCell id="Xnv4SM8pmu6KSxDaKhVw-7" value="标准设备、成熟技术" style="rounded=1;whiteSpace=wrap;html=1;" vertex="1" parent="1">
          <mxGeometry x="470" y="530" width="120" height="40" as="geometry" />
        </mxCell>
        <mxCell id="Xnv4SM8pmu6KSxDaKhVw-21" style="edgeStyle=orthogonalEdgeStyle;rounded=0;orthogonalLoop=1;jettySize=auto;html=1;exitX=1;exitY=0.5;exitDx=0;exitDy=0;entryX=0;entryY=0.5;entryDx=0;entryDy=0;" edge="1" parent="1" source="Xnv4SM8pmu6KSxDaKhVw-8" target="Xnv4SM8pmu6KSxDaKhVw-18">
          <mxGeometry relative="1" as="geometry" />
        </mxCell>
        <mxCell id="Xnv4SM8pmu6KSxDaKhVw-8" value="船型" style="rounded=1;whiteSpace=wrap;html=1;" vertex="1" parent="1">
          <mxGeometry x="470" y="585" width="120" height="30" as="geometry" />
        </mxCell>
        <mxCell id="Xnv4SM8pmu6KSxDaKhVw-22" style="edgeStyle=orthogonalEdgeStyle;rounded=0;orthogonalLoop=1;jettySize=auto;html=1;exitX=1;exitY=0.5;exitDx=0;exitDy=0;entryX=0;entryY=0.5;entryDx=0;entryDy=0;" edge="1" parent="1" source="Xnv4SM8pmu6KSxDaKhVw-10" target="Xnv4SM8pmu6KSxDaKhVw-19">
          <mxGeometry relative="1" as="geometry" />
        </mxCell>
        <mxCell id="Xnv4SM8pmu6KSxDaKhVw-10" value="发动机和发电机" style="rounded=1;whiteSpace=wrap;html=1;" vertex="1" parent="1">
          <mxGeometry x="470" y="630" width="120" height="30" as="geometry" />
        </mxCell>
        <mxCell id="Xnv4SM8pmu6KSxDaKhVw-28" style="edgeStyle=orthogonalEdgeStyle;rounded=0;orthogonalLoop=1;jettySize=auto;html=1;exitX=1;exitY=0.5;exitDx=0;exitDy=0;entryX=0;entryY=0.5;entryDx=0;entryDy=0;" edge="1" parent="1" source="Xnv4SM8pmu6KSxDaKhVw-11" target="Xnv4SM8pmu6KSxDaKhVw-25">
          <mxGeometry relative="1" as="geometry" />
        </mxCell>
        <mxCell id="Xnv4SM8pmu6KSxDaKhVw-11" value="（正看，是否预留R410家用的位置节省成本）" style="rounded=1;whiteSpace=wrap;html=1;" vertex="1" parent="1">
          <mxGeometry x="615" y="670" width="130" height="40" as="geometry" />
        </mxCell>
        <mxCell id="Xnv4SM8pmu6KSxDaKhVw-32" style="edgeStyle=orthogonalEdgeStyle;rounded=0;orthogonalLoop=1;jettySize=auto;html=1;exitX=1;exitY=0.5;exitDx=0;exitDy=0;entryX=0;entryY=0.5;entryDx=0;entryDy=0;" edge="1" parent="1" source="Xnv4SM8pmu6KSxDaKhVw-17" target="Xnv4SM8pmu6KSxDaKhVw-31">
          <mxGeometry relative="1" as="geometry" />
        </mxCell>
        <mxCell id="Xnv4SM8pmu6KSxDaKhVw-17" value="内装，非安全相关的，是否用家用，标准件，便宜好修。" style="rounded=1;whiteSpace=wrap;html=1;" vertex="1" parent="1">
          <mxGeometry x="470" y="720" width="160" height="40" as="geometry" />
        </mxCell>
        <mxCell id="Xnv4SM8pmu6KSxDaKhVw-18" value="(流体力学仿真，汽车是否有人)" style="rounded=1;whiteSpace=wrap;html=1;" vertex="1" parent="1">
          <mxGeometry x="620" y="585" width="120" height="30" as="geometry" />
        </mxCell>
        <mxCell id="Xnv4SM8pmu6KSxDaKhVw-37" style="edgeStyle=orthogonalEdgeStyle;rounded=0;orthogonalLoop=1;jettySize=auto;html=1;exitX=1;exitY=0.5;exitDx=0;exitDy=0;entryX=0;entryY=0.5;entryDx=0;entryDy=0;" edge="1" parent="1" source="Xnv4SM8pmu6KSxDaKhVw-19" target="Xnv4SM8pmu6KSxDaKhVw-36">
          <mxGeometry relative="1" as="geometry" />
        </mxCell>
        <mxCell id="Xnv4SM8pmu6KSxDaKhVw-19" value="潍柴/机械泵/中速" style="rounded=1;whiteSpace=wrap;html=1;" vertex="1" parent="1">
          <mxGeometry x="620" y="630" width="120" height="30" as="geometry" />
        </mxCell>
        <mxCell id="Xnv4SM8pmu6KSxDaKhVw-20" value="航标船、减摇设备" style="rounded=1;whiteSpace=wrap;html=1;" vertex="1" parent="1">
          <mxGeometry x="620" y="530" width="120" height="40" as="geometry" />
        </mxCell>
        <mxCell id="Xnv4SM8pmu6KSxDaKhVw-26" style="edgeStyle=orthogonalEdgeStyle;rounded=0;orthogonalLoop=1;jettySize=auto;html=1;exitX=1;exitY=0.5;exitDx=0;exitDy=0;entryX=0;entryY=0.5;entryDx=0;entryDy=0;" edge="1" parent="1" source="Xnv4SM8pmu6KSxDaKhVw-23" target="Xnv4SM8pmu6KSxDaKhVw-11">
          <mxGeometry relative="1" as="geometry" />
        </mxCell>
        <mxCell id="Xnv4SM8pmu6KSxDaKhVw-23" value="空调" style="rounded=1;whiteSpace=wrap;html=1;" vertex="1" parent="1">
          <mxGeometry x="470" y="675" width="120" height="30" as="geometry" />
        </mxCell>
        <mxCell id="Xnv4SM8pmu6KSxDaKhVw-25" value="活动室高级 / 潜艇舱节能" style="rounded=1;whiteSpace=wrap;html=1;" vertex="1" parent="1">
          <mxGeometry x="770" y="675" width="190" height="30" as="geometry" />
        </mxCell>
        <mxCell id="Xnv4SM8pmu6KSxDaKhVw-31" value="活动室高级找设计师？" style="rounded=1;whiteSpace=wrap;html=1;" vertex="1" parent="1">
          <mxGeometry x="645" y="725" width="145" height="30" as="geometry" />
        </mxCell>
        <mxCell id="Xnv4SM8pmu6KSxDaKhVw-35" value="海图、南海水文、论文、收集沉船信息" style="rounded=1;whiteSpace=wrap;html=1;" vertex="1" parent="1">
          <mxGeometry x="460" y="810" width="120" height="60" as="geometry" />
        </mxCell>
        <mxCell id="Xnv4SM8pmu6KSxDaKhVw-36" value="找修理工问要点&lt;br&gt;/游艇直通回国修" style="rounded=1;whiteSpace=wrap;html=1;" vertex="1" parent="1">
          <mxGeometry x="760" y="630" width="120" height="30" as="geometry" />
        </mxCell>
        <mxCell id="Xnv4SM8pmu6KSxDaKhVw-39" value="探测设备（侧扫声呐选型，国产）" style="rounded=1;whiteSpace=wrap;html=1;" vertex="1" parent="1">
          <mxGeometry x="625" y="810" width="120" height="60" as="geometry" />
        </mxCell>
        <mxCell id="Xnv4SM8pmu6KSxDaKhVw-40" value="反向施压Triton在没保密协议的情况下提供" style="rounded=0;whiteSpace=wrap;html=1;" vertex="1" parent="1">
          <mxGeometry x="860" y="10" width="120" height="60" as="geometry" />
        </mxCell>
      </root>
    </mxGraphModel>
  </diagram>
</mxfile>
